ply
format ascii 1.0
element vertex 400
property float x
property float y
property float z
element face 785
property list uchar int vertex_index
end_header
15.1294 13.5068 0
14.4592 12.5089 0
15.4599 13.1349 0
17.3503 14.7772 0
16.7009 14.8402 0
16.7036 14.296 0
15.4693 11.6485 0
15.1516 12.1302 0
15.2176 11.5584 0
10.692 11.4283 0
11.1895 11.2547 0
11.1371 11.3556 0
17.7858 16.6337 0
17.6974 16.5338 0
17.6883 16.1842 0
14.1768 16.8741 0
14.676 16.7227 0
14.5767 17.2278 0
13.7855 12.4159 0
14.2396 13.3263 0
12.7179 14.4976 0
12.1952 14.5521 0
12.3917 13.5676 0
10.7916 15.6445 0
11.581 16.0918 0
10.8524 16.2717 0
16.5546 17.9082 0
16.5864 18.0867 0
16.424 18.1518 0
13.2879 19.7456 0
14.1551 19.1613 0
14.9275 19.9625 0
11.3304 15.2652 0
11.9828 14.9585 0
11.9015 16.1476 0
12.0208 11.8227 0
11.4189 11.4826 0
12.0556 11.6849 0
11.6237 19.6368 0
12.0738 19.8661 0
11.2263 19.8695 0
10.6124 17.881 0
11.1246 18.1639 0
10.3728 18.448 0
16.6044 10.8397 0
16.5789 10.3227 0
16.9372 10.4756 0
19.4662 18.0902 0
19.705 17.913 0
19.8437 17.9409 0
15.6153 12.7584 0
14.9261 12.2396 0
13.4871 10.3539 0
12.7393 10.4519 0
11.9858 10.4555 0
18.0022 13.3566 0
18.2493 12.9277 0
18.7938 13.533 0
12.1443 12.5937 0
12.5022 13.483 0
18.5929 14.1331 0
19.659 13.503 0
19.8377 13.6041 0
19.7304 14.0771 0
16.2067 16.4376 0
15.8646 15.7791 0
16.5073 16.0997 0
13.086 18.3333 0
13.5663 18.4095 0
13.2926 18.6543 0
15.1074 11.0133 0
14.5224 11.7514 0
15.7812 11.1316 0
15.5154 11.1397 0
15.6989 10.8849 0
17.627 14.0866 0
17.6327 14.4828 0
18.4874 15.9485 0
18.1825 14.7102 0
18.4126 14.6058 0
17.449 16.4441 0
17.4246 15.73 0
19.0002 16.2204 0
18.5768 16.0091 0
19.2743 15.5179 0
16.2679 12.9391 0
16.7646 12.6524 0
16.46 13.2192 0
17.8687 10.6046 0
18.282 10.3997 0
18.9859 11.0549 0
12.2777 12.0494 0
12.8812 11.6482 0
13.4913 11.0093 0
13.1877 11.1215 0
13.2703 10.5804 0
15.3732 15.988 0
15.4764 15.5985 0
16.2937 17.7036 0
16.3275 18.3337 0
18.3327 18.7001 0
18.4222 18.3247 0
18.8763 18.4127 0
15.3806 19.2937 0
15.182 19.9639 0
14.8214 19.3984 0
14.2695 14.4593 0
13.8449 13.6884 0
12.0329 16.734 0
12.0807 17.2644 0
11.4548 17.39 0
13.1986 13.875 0
12.9816 14.1587 0
13.0027 13.6618 0
14.4572 10.2696 0
13.8102 10.4418 0
14.5727 10.1058 0
11.2435 13.1452 0
11.3692 13.5613 0
11.1958 13.5169 0
13.0891 14.4928 0
13.262 15.0469 0
12.8868 15.1417 0
14.6684 17.9913 0
14.8744 18.48 0
14.6466 18.5538 0
10.7756 18.9471 0
11.465 18.572 0
11.8167 19.1074 0
13.7107 13.946 0
13.8065 14.3748 0
13.7026 14.4599 0
12.5361 17.0856 0
12.1664 17.2205 0
12.9976 12.7458 0
12.8564 12.4555 0
13.3032 12.8025 0
10.9061 10.6841 0
11.7186 11.0202 0
19.6581 14.8842 0
19.9876 17.6649 0
13.0422 19.1281 0
17.8309 17.6091 0
17.3035 16.8419 0
18.0038 17.1526 0
18.4179 18.8463 0
18.0706 19.1726 0
14.6773 10.3819 0
14.2766 10.9307 0
16.664 11.251 0
15.9417 10.8831 0
19.0456 13.5202 0
19.0513 13.4008 0
19.9876 11.2004 0
13.5458 16.8095 0
13.3939 16.9022 0
13.8079 15.0327 0
13.2301 15.0933 0
17.5443 19.0211 0
17.9608 18.6514 0
15.3582 14.9884 0
15.055 15.2892 0
13.729 15.804 0
13.7761 15.8873 0
13.7453 16.0107 0
16.436 18.3539 0
16.6026 18.2543 0
16.9934 18.6128 0
13.9655 14.332 0
14.2594 15.3971 0
14.4058 15.8358 0
12.2961 17.3465 0
12.8643 17.3637 0
14.991 18.6332 0
15.3118 18.5946 0
15.4512 18.7469 0
14.3678 15.4439 0
14.2653 15.1139 0
14.8157 15.1135 0
13.6285 13.8176 0
12.303 19.8492 0
10.4971 17.7195 0
10.3104 17.0997 0
14.945 11.878 0
17.0786 15.4778 0
17.3281 15.1751 0
17.716 15.1591 0
18.0077 15.9712 0
14.9606 17.4248 0
14.9886 17.1537 0
16.3155 17.3645 0
16.617 19.0745 0
13.7521 10.5694 0
12.9189 10.96 0
13.103 11.1589 0
13.1687 16.0982 0
11.2664 16.8862 0
12.9988 15.9629 0
12.9717 12.7627 0
12.7451 12.8869 0
16.8075 17.9949 0
17.5477 18.2897 0
17.0268 18.5675 0
17.8684 14.9529 0
19.131 14.2671 0
14.9319 11.8202 0
15.63 10.65 0
15.5821 10.4592 0
15.7617 10.3085 0
16.1247 10.7861 0
14.8086 16.9001 0
16.196 13.2653 0
16.049 13.7584 0
12.9839 15.4935 0
14.2289 18.2054 0
14.4799 17.3602 0
18.484 19.3085 0
18.2158 19.315 0
15.7597 19.1405 0
16.2566 19.6474 0
10.8103 16.4152 0
10.6911 14.8447 0
10.7992 14.4175 0
11.0765 14.3639 0
16.4616 15.5505 0
17.2623 16.5146 0
19.392 17.4497 0
18.9182 17.7135 0
18.8845 17.5955 0
17.7705 17.9384 0
18.2871 17.9551 0
16.8894 17.5379 0
17.6483 17.9917 0
19.3815 13.0936 0
19.4179 17.3846 0
16.6128 17.218 0
16.8568 17.5218 0
16.7971 17.0995 0
19.0044 19.6692 0
19.5567 19.8927 0
19.0909 19.8826 0
18.3588 19.5839 0
16.5985 17.9424 0
12.1689 12.3165 0
11.536 12.1555 0
10.5849 10.9062 0
13.6203 11.286 0
16.5157 16.1769 0
16.5506 16.4935 0
14.77 14.661 0
14.9463 14.4623 0
17.5193 12.45 0
18.7343 11.9384 0
12.5973 18.8697 0
12.6283 19.2155 0
12.3771 19.5269 0
10.6085 16.8971 0
10.3361 16.9022 0
10.5397 16.4547 0
10.0186 11.9893 0
10.4479 11.5357 0
10.7829 11.9329 0
14.9566 15.9575 0
14.5135 15.9362 0
12.4147 10.9336 0
18.9909 11.0619 0
19.2098 11.5744 0
18.6652 11.752 0
19.4695 15.6031 0
11.6802 14.0594 0
10.3753 13.21 0
10.7451 12.7843 0
12.4102 16.3664 0
17.5948 12.9913 0
18.5041 11.6758 0
19.7965 13.4451 0
12.4611 12.569 0
16.4742 17.1362 0
14.7062 10.0159 0
13.8052 18.4393 0
14.1684 18.4671 0
17.9714 17.8329 0
18.2871 16.7672 0
15.5219 18.85 0
14.9751 19.2169 0
16.4446 13.6118 0
17.2052 13.7467 0
14.5852 19.2136 0
14.8183 16.9449 0
12.9996 11.655 0
14.4791 15.9966 0
15.9535 12.1495 0
17.1049 13.5393 0
17.1792 13.6032 0
15.8572 18.6362 0
17.6927 13.3186 0
18.9286 12.8328 0
16.6972 17.7775 0
16.6003 17.793 0
14.3455 19.1309 0
19.2419 13.0124 0
14.3225 12.3133 0
16.2456 13.2565 0
16.8387 10.945 0
16.5874 14.6745 0
15.9181 15.3874 0
15.9189 14.3186 0
18.601 19.211 0
19.8654 19.0762 0
16.3428 19.991 0
19.2248 10.6238 0
19.6324 10.2074 0
16.3668 10.6284 0
16.1376 10.3535 0
12.0167 10.7979 0
12.2694 17.7585 0
11.4367 18.4285 0
10.1798 15.6567 0
10.3896 13.8942 0
17.4489 18.5579 0
12.7903 17.8457 0
17.6365 15.7034 0
10.7718 12.91 0
11.2862 11.3516 0
11.435 11.2248 0
16.4392 19.2258 0
19.259 10.9646 0
19.975 10.6686 0
17.2777 10.1444 0
16.281 10.1395 0
12.9942 18.9386 0
14.5042 16.1533 0
10.538 19.3203 0
10.57 19.1485 0
10.181 19.1692 0
15.2941 14.0469 0
15.9894 14.0981 0
19.164 16.7712 0
19.2832 16.1727 0
11.0644 14.3557 0
10.7303 14.1218 0
12.7336 18.1218 0
17.7451 10.1549 0
18.0866 10.4156 0
10.5648 15.6552 0
10.3845 15.3095 0
10.8054 10.517 0
17.1677 15.0271 0
17.0735 15.2514 0
16.6521 11.0057 0
11.4299 15.0154 0
15.7651 11.2683 0
11.2769 19.6074 0
19.8869 11.5248 0
14.9586 16.0863 0
18.6549 18.0421 0
12.0306 17.3585 0
15.162 18.3853 0
10.8567 17.4865 0
10.5717 15.8258 0
10.335 16.9525 0
10.1681 19.5535 0
10.044 19.8517 0
12.9874 16.6745 0
12.3221 18.0537 0
17.0097 12.6215 0
16.9436 12.0147 0
16.8349 11.0121 0
17.1007 10.7161 0
17.3907 11.7768 0
17.2499 12.7842 0
16.6035 14.7129 0
16.5464 15.2708 0
10.5947 10.8629 0
16.6627 15.3727 0
17.1579 13.5747 0
10.7448 14.3395 0
19.6556 17.3623 0
15.9248 15.4176 0
15.6092 12.0335 0
16.8393 12.4578 0
17.4453 10.3086 0
17.5363 18.364 0
17.8667 14.3741 0
17.423 10.255 0
15.0914 12.144 0
13.6837 16.3114 0
19.2186 11.044 0
17.6093 14.6912 0
14.6496 10.0624 0
10.999 12.8279 0
10.6797 17.044 0
10.5415 16.1578 0
10.5677 16.3357 0
10.5311 16.217 0
12.5606 16.6015 0
19.8111 11.3192 0
19.1623 10.9536 0
12.4181 17.9945 0
19.6734 11.5696 0
3 369 274 251
3 370 251 273
3 311 342 278
3 366 380 291
3 6 291 379
3 21 122 33
3 269 33 350
3 360 391 182
3 257 182 317
3 204 151 63
3 204 63 139
3 132 363 172
3 171 172 320
3 109 171 356
3 109 356 110
3 40 362 361
3 220 258 393
3 25 393 394
3 223 222 339
3 119 339 340
3 47 227 226
3 377 226 234
3 329 45 313
3 329 313 208
3 110 358 196
3 110 196 108
3 50 7 379
3 85 50 291
3 323 10 324
3 36 324 138
3 123 188 357
3 173 357 174
3 168 107 106
3 156 106 177
3 353 233 399
3 387 399 266
3 52 192 95
3 52 95 53
3 395 108 272
3 395 272 197
3 179 129 111
3 179 111 113
3 228 337 234
3 48 226 377
3 219 218 325
3 309 325 191
3 367 149 349
3 303 349 44
3 387 397 326
3 396 326 327
3 43 334 182
3 256 360 257
3 127 364 128
3 352 128 38
3 289 135 92
3 193 92 264
3 322 270 271
3 390 271 261
3 123 215 188
3 357 188 98
3 224 65 378
3 224 378 305
3 77 79 84
3 338 84 268
3 316 364 127
3 352 126 128
3 23 221 32
3 23 32 24
3 320 341 398
3 320 398 315
3 335 250 0
3 212 0 2
3 159 201 229
3 230 229 281
3 209 208 313
3 209 312 44
3 394 317 392
3 394 392 25
3 253 330 254
3 128 254 255
3 372 224 305
3 306 305 160
3 366 291 149
3 369 149 367
3 263 331 290
3 263 290 170
3 190 64 277
3 190 277 235
3 42 316 127
3 43 126 333
3 324 10 137
3 264 138 314
3 188 215 17
3 294 357 98
3 358 110 42
3 358 42 41
3 389 278 147
3 116 147 114
3 244 261 36
3 244 36 35
3 260 245 9
3 261 9 11
3 361 334 332
3 361 332 40
3 261 11 36
3 261 244 390
3 71 246 148
3 71 148 70
3 139 268 84
3 139 79 204
3 354 96 210
3 354 210 16
3 325 218 294
3 158 191 167
3 368 303 46
3 381 46 328
3 231 142 232
3 200 232 201
3 396 327 153
3 68 214 279
3 69 279 30
3 369 88 274
3 252 274 267
3 156 168 106
3 156 177 169
3 154 386 15
3 215 15 17
3 77 282 187
3 186 187 321
3 347 3 185
3 347 185 348
3 269 350 223
3 376 339 222
3 342 384 328
3 278 328 329
3 272 34 213
3 363 197 195
3 203 388 78
3 79 78 383
3 187 282 12
3 187 14 321
3 261 260 9
3 36 11 323
3 234 337 377
3 48 377 140
3 336 5 306
3 335 306 160
3 372 371 4
3 374 4 348
3 378 65 97
3 224 372 374
3 240 309 241
3 216 241 217
3 105 31 287
3 105 287 284
3 131 156 121
3 131 121 120
3 230 355 101
3 159 101 100
3 169 162 156
3 168 156 131
3 293 292 375
3 293 375 295
3 115 192 52
3 115 52 116
3 246 94 93
3 148 93 192
3 395 363 132
3 133 132 171
3 330 69 141
3 254 141 29
3 362 259 317
3 31 362 40
3 102 308 307
3 145 307 216
3 387 265 397
3 326 397 310
3 23 25 359
3 23 359 344
3 249 160 178
3 169 177 176
3 41 43 181
3 391 358 182
3 10 245 137
3 314 138 54
3 76 383 388
3 76 388 3
3 318 259 270
3 119 270 322
3 280 214 125
3 280 125 299
3 190 189 64
3 237 277 248
3 399 300 266
3 396 399 387
3 353 275 233
3 399 233 300
3 102 47 308
3 307 238 216
3 297 231 200
3 166 200 202
3 194 289 92
3 95 193 53
3 311 89 342
3 278 342 328
3 169 163 162
3 156 162 157
3 16 331 354
3 64 189 96
3 248 247 225
3 237 225 143
3 68 155 214
3 279 214 280
3 383 60 79
3 3 388 186
3 256 258 220
3 256 220 196
3 126 42 127
3 182 358 181
3 289 246 18
3 135 18 136
3 190 298 98
3 174 357 294
3 336 306 335
3 212 335 0
3 258 257 394
3 359 392 317
3 108 395 132
3 108 133 109
3 6 73 351
3 291 351 149
3 320 67 341
3 398 341 364
3 265 267 274
3 397 90 310
3 88 369 368
3 88 368 381
3 286 295 75
3 76 75 383
3 110 316 42
3 196 358 391
3 190 98 188
3 210 288 17
3 370 273 292
3 370 292 87
3 259 373 245
3 259 245 260
3 102 227 47
3 308 47 49
3 212 211 285
3 336 285 5
3 97 160 305
3 247 64 66
3 345 318 221
3 32 221 350
3 164 331 386
3 363 386 154
3 353 399 396
3 353 396 153
3 296 57 56
3 251 56 273
3 79 60 204
3 383 78 388
3 28 98 26
3 27 26 242
3 253 128 364
3 398 364 315
3 29 31 180
3 255 180 39
3 85 87 302
3 85 302 211
3 263 176 262
3 354 262 96
3 285 87 292
3 306 5 304
3 317 345 344
3 220 393 25
3 190 236 298
3 26 298 242
3 369 251 366
3 369 366 149
3 124 357 173
3 287 125 173
3 282 337 228
3 355 228 227
3 265 90 397
3 396 387 326
3 34 33 213
3 197 213 162
3 116 389 147
3 115 114 148
3 281 144 230
3 159 230 101
3 283 294 218
3 283 218 103
3 222 221 376
3 339 376 340
3 373 346 137
3 11 10 323
3 244 35 243
3 271 390 322
3 355 227 102
3 100 102 145
3 305 304 371
3 178 160 161
3 213 157 162
3 395 197 363
3 257 317 394
3 393 258 394
3 289 18 135
3 91 135 276
3 366 365 380
3 291 380 86
3 182 334 362
3 391 360 256
3 345 221 23
3 392 359 25
3 356 315 110
3 256 196 391
3 243 276 58
3 390 244 117
3 58 276 199
3 390 117 322
3 183 7 385
3 183 385 51
3 149 351 72
3 368 367 303
3 72 74 150
3 149 150 209
3 31 30 287
3 103 105 284
3 138 324 137
3 37 138 264
3 182 362 317
3 332 334 333
3 205 8 183
3 71 183 51
3 107 129 179
3 136 179 113
3 309 31 104
3 165 28 166
3 167 166 202
3 309 191 158
3 217 158 146
3 33 122 213
3 223 350 221
3 312 45 44
3 367 349 303
3 69 68 279
3 141 30 29
3 176 170 169
3 106 249 177
3 278 208 207
3 278 389 116
3 388 203 186
3 304 5 371
3 278 52 54
3 278 54 346
3 3 186 185
3 3 347 4
3 370 365 251
3 295 273 55
3 265 387 266
3 90 265 274
3 163 170 164
3 195 164 386
3 351 73 72
3 44 349 209
3 282 77 83
3 282 83 82
3 325 294 191
3 104 219 309
3 386 331 15
3 363 154 155
3 12 143 13
3 14 13 80
3 119 318 270
3 244 58 117
3 134 136 198
3 276 135 199
3 99 28 165
3 191 165 167
3 195 386 363
3 272 213 197
3 6 379 7
3 385 7 51
3 15 215 155
3 96 189 210
3 89 88 343
3 384 342 381
3 246 289 94
3 95 94 193
3 254 330 141
3 38 255 39
3 342 89 343
3 328 384 381
3 198 136 113
3 135 198 199
3 57 204 60
3 75 60 383
3 111 129 131
3 199 113 59
3 201 159 382
3 202 382 319
3 118 22 269
3 339 119 118
3 4 371 5
3 184 374 348
3 338 268 377
3 377 337 338
3 382 159 319
3 201 382 202
3 354 331 263
3 64 96 65
3 342 88 381
3 46 381 368
3 70 207 206
3 73 206 74
3 92 135 91
3 37 91 35
3 86 380 365
3 86 365 370
3 50 379 291
3 50 85 211
3 313 312 209
3 147 278 207
3 305 378 97
3 374 372 4
3 253 364 341
3 330 67 69
3 338 82 84
3 377 268 140
3 107 136 19
3 0 19 1
3 376 318 340
3 118 269 339
3 345 317 318
3 221 318 376
3 241 309 158
3 145 217 146
3 375 292 295
3 292 273 295
3 348 185 184
3 374 184 224
3 37 36 138
3 193 264 53
3 245 373 137
3 305 371 372
3 285 336 212
3 219 104 103
3 308 239 238
3 86 370 87
3 302 87 285
3 367 368 369
3 365 366 251
3 144 12 282
3 337 282 82
3 58 22 117
3 91 243 35
3 297 200 242
3 98 298 26
3 111 131 120
3 113 112 22
3 140 308 49
3 140 49 48
3 293 295 286
3 5 286 75
3 237 248 225
3 144 143 12
3 126 43 42
3 364 316 315
3 153 62 353
3 296 266 300
3 172 363 155
3 133 171 109
3 334 361 362
3 360 182 257
3 121 157 122
3 22 112 20
3 359 317 344
3 358 41 181
3 18 71 301
3 18 301 1
3 124 123 357
3 284 173 175
3 298 297 242
3 294 98 99
3 172 68 320
3 356 171 315
3 230 228 355
3 101 355 102
3 288 189 17
3 263 262 354
3 332 126 352
3 332 352 40
3 353 62 275
3 233 275 61
3 128 255 38
3 352 38 40
3 249 106 250
3 0 250 106
3 8 73 6
3 291 6 351
3 46 45 328
3 274 88 90
3 32 350 33
3 196 25 24
3 178 161 176
3 177 249 178
3 290 331 164
3 161 262 176
3 30 299 287
3 255 29 180
3 225 247 66
3 143 80 13
3 191 294 99
3 283 103 284
3 300 152 296
3 266 296 252
3 150 206 209
3 349 149 209
3 238 241 216
3 102 307 145
3 158 167 319
3 294 283 175
3 231 237 143
3 229 232 142
3 185 186 321
3 347 348 4
3 137 346 54
3 23 344 345
3 185 321 81
3 5 76 3
3 90 89 310
3 327 310 311
3 88 342 343
3 278 329 208
3 341 67 253
3 171 320 315
3 340 318 119
3 269 223 339
3 187 12 14
3 337 82 338
3 336 335 212
3 160 250 335
3 334 43 333
3 332 333 126
3 262 161 97
3 15 331 16
3 285 292 286
3 50 211 2
3 287 299 125
3 67 330 253
3 225 80 143
3 277 237 235
3 328 45 329
3 326 310 327
3 325 309 219
3 319 167 202
3 36 323 324
3 117 119 322
3 14 81 321
3 142 231 143
3 155 215 214
3 67 320 68
3 201 232 229
3 158 319 159
3 317 259 318
3 110 315 316
3 71 51 301
3 148 246 93
3 314 54 264
3 271 259 261
3 20 122 21
3 269 21 33
3 45 312 313
3 310 89 311
3 239 309 240
3 307 308 238
3 70 206 73
3 70 73 8
3 238 240 241
3 304 305 306
3 65 224 66
3 46 303 44
3 266 252 267
3 83 77 84
3 142 144 281
3 75 55 60
3 285 211 302
3 1 301 51
3 2 51 50
3 152 57 296
3 152 300 233
3 214 123 125
3 30 280 299
3 236 231 297
3 236 297 298
3 92 37 264
3 94 194 193
3 56 252 296
3 75 295 55
3 166 27 200
3 174 294 175
3 292 293 286
3 291 86 85
3 164 170 290
3 172 155 68
3 289 194 94
3 183 71 205
3 189 288 210
3 284 287 173
3 47 226 48
3 144 228 230
3 184 81 66
3 5 285 286
3 175 283 284
3 125 124 173
3 144 282 228
3 229 142 281
3 105 104 31
3 279 280 30
3 147 207 70
3 278 116 52
3 225 81 80
3 277 64 248
3 199 59 58
3 91 276 243
3 275 62 61
3 251 274 252
3 56 55 273
3 57 152 151
3 24 32 34
3 108 34 272
3 270 259 271
3 22 21 269
3 78 77 203
3 268 139 140
3 265 266 267
3 63 151 61
3 95 192 93
3 54 53 264
3 263 170 176
3 96 262 97
3 259 260 261
3 256 257 258
3 254 29 255
3 128 253 254
3 147 70 148
3 251 252 56
3 160 249 250
3 247 248 64
3 71 18 246
3 136 18 19
3 9 245 10
3 243 58 244
3 231 236 237
3 27 242 200
3 217 241 158
3 238 239 240
3 235 237 236
3 235 236 190
3 228 234 226
3 61 152 233
3 130 168 131
3 112 111 120
3 200 231 232
3 188 17 189
3 159 229 230
3 226 227 228
3 81 225 66
3 224 184 66
3 221 222 223
3 196 220 25
3 218 219 103
3 216 217 145
3 214 215 123
3 24 34 108
3 20 120 122
3 213 122 157
3 211 212 2
3 210 17 16
3 206 208 209
3 150 74 206
3 206 207 208
3 71 8 205
3 63 62 139
3 84 79 139
3 57 151 204
3 186 203 77
3 200 201 202
3 28 27 166
3 198 113 199
3 135 134 198
3 195 197 162
3 196 24 108
3 195 162 164
3 59 113 22
3 193 194 92
3 148 192 115
3 191 99 165
3 188 189 190
3 186 77 187
3 184 185 81
3 7 183 8
3 1 51 2
3 181 43 182
3 180 31 39
3 112 120 20
3 107 179 136
3 176 177 178
3 168 130 129
3 173 174 175
3 171 132 172
3 169 170 163
3 107 168 129
3 159 100 146
3 165 166 167
3 162 163 164
3 160 97 161
3 31 40 39
3 158 159 146
3 156 157 121
3 154 15 155
3 153 140 62
3 151 152 61
3 149 72 150
3 114 147 148
3 100 145 146
3 142 143 144
3 69 30 141
3 139 62 140
3 137 54 138
3 134 135 136
3 108 132 133
3 129 130 131
3 126 127 128
3 123 124 125
3 120 121 122
3 19 0 106
3 117 118 119
3 117 22 118
3 114 115 116
3 111 112 113
3 108 109 110
3 19 106 107
3 103 104 105
3 100 101 102
3 98 28 99
3 96 97 65
3 93 94 95
3 91 37 92
3 88 89 90
3 85 86 87
3 82 83 84
3 14 80 81
3 77 78 79
3 5 75 76
3 72 73 74
3 70 8 71
3 67 68 69
3 64 65 66
3 61 62 63
3 55 57 60
3 58 59 22
3 55 56 57
3 52 53 54
3 7 50 51
3 47 48 49
3 44 45 46
3 41 42 43
3 38 39 40
3 35 36 37
3 32 33 34
3 29 30 31
3 26 27 28
3 23 24 25
3 20 21 22
3 18 1 19
3 15 16 17
3 12 13 14
3 9 10 11
3 6 7 8
3 3 4 5
3 0 1 2
